# xmcd
#
# Track frame offsets: 
#        187
#        19095
#        44947
#        65940
#        92450
#        115517
#        142405
#        159222
#        188842
#        214370
#        240140
#        263905
#        289525
#        309567
#        327032
#
# Disc length: 4651 seconds
#
# Revision: 8
# Processed by: cddbd v1.5.2PL0 Copyright (c) Steve Scherf et al.
# Submitted via: ExactAudioCopyFreeDBPlugin 1.0
#
DISCID=d812290f
DTITLE=Bon Jovi - Cross Road [PHCR-1300]
DYEAR=1994
DGENRE=Rock
TTITLE0=Livin' On A Prayer
TTITLE1=Keep The Faith
TTITLE2=Someday I'll Be Saturday Night
TTITLE3=Always
TTITLE4=Wanted Dead Or Alive
TTITLE5=Lay Your Hands On Me
TTITLE6=You Give Love A Bad Name
TTITLE7=Bed Of Roses
TTITLE8=Blaze Of Glory
TTITLE9=Tokyo Road
TTITLE10=Bad Medicine
TTITLE11=I'll Be There For You
TTITLE12=In and Out Of Love
TTITLE13=Runaway
TTITLE14=Never Say Goodbye
EXTD=YEAR: 1994 ID3G: 79
EXTT0=
EXTT1=
EXTT2=
EXTT3=
EXTT4=
EXTT5=
EXTT6=
EXTT7=
EXTT8=
EXTT9=
EXTT10=
EXTT11=
EXTT12=
EXTT13=
EXTT14=
PLAYORDER=
